<?xml version="1.0" encoding="utf-8"?>
<!-- Generator: Adobe Illustrator 24.1.2, SVG Export Plug-In . SVG Version: 6.00 Build 0)  -->
<svg version="1.1" id="Layer_1" xmlns="http://www.w3.org/2000/svg" xmlns:xlink="http://www.w3.org/1999/xlink" x="0px" y="0px"
	 viewBox="0 0 376 170.5" style="enable-background:new 0 0 376 170.5;" xml:space="preserve">
<style type="text/css">
	.st0{fill:#FFFFFF;}
</style>
<g>
	
		<image style="overflow:visible;" width="1446" height="382" xlink:href="3FA986393D6F8CD3.png"  transform="matrix(0.24 0 0 0.24 22.8302 33.5591)">
	</image>
	<g>
		<g>
			<g>
				<g>
					<path class="st0" d="M105.1,106.7v-33h-3.9v-6.2h3.9v-5.3c0-1.9,0.3-3.5,0.8-4.8c0.6-1.3,1.3-2.4,2.3-3.3
						c0.9-0.9,2-1.5,3.2-1.9c1.2-0.4,2.5-0.5,3.7-0.5h3.6v7.4h-3.6c-1.5,0-2.3,0.9-2.3,2.7v5.7h5.9v6.2H113v33H105.1z"/>
				</g>
				<g>
					<path class="st0" d="M121.3,59.6v-7.9h7.9v7.9H121.3z M121.3,106.7V67.5h7.9v39.2H121.3z"/>
				</g>
				<g>
					<path class="st0" d="M135.2,51.7h7.9v44c0,1.5,0.3,2.5,0.8,3.1c0.5,0.5,1.6,0.9,3.1,1v7.4c-1.8,0-3.4-0.1-4.9-0.4
						c-1.4-0.3-2.7-0.8-3.7-1.7c-1-0.8-1.8-1.9-2.4-3.3c-0.5-1.4-0.8-3.3-0.8-5.6V51.7z"/>
				</g>
				<g>
					<path class="st0" d="M150,106.7V67.5h7.9v3.8h0.2c0.8-1.2,1.8-2.3,3-3.1c1.2-0.8,2.6-1.2,4.4-1.2c1.7,0,3.1,0.4,4.2,1.2
						c1.1,0.8,2.1,1.7,2.8,2.7c1-1.1,2.1-2,3.2-2.8c1.2-0.8,2.8-1.2,4.9-1.2c1,0,2,0.2,3,0.5c1,0.3,2,0.9,2.8,1.7
						c0.8,0.8,1.5,1.8,2,3c0.5,1.2,0.8,2.7,0.8,4.4v30.1h-7.9V79.6c0-1.4-0.3-2.6-1-3.4c-0.7-0.8-1.6-1.2-2.9-1.2
						c-1.5,0-2.5,0.5-3.1,1.4c-0.6,0.9-0.8,2.3-0.8,4v26.3h-7.9V79.6c0-1.4-0.3-2.6-1-3.4c-0.7-0.8-1.6-1.2-2.9-1.2
						c-1.5,0-2.5,0.5-3.1,1.4c-0.6,0.9-0.8,2.3-0.8,4v26.3H150z"/>
				</g>
				<g>
					<path class="st0" d="M193.8,106.7v-6.3l12.7-26h-11.7v-7h20.7v6.3l-12.7,25.5h12.7v7.4H193.8z"/>
				</g>
				<g>
					<path class="st0" d="M218.9,80.6c0-1.6,0.1-3.1,0.3-4.4c0.2-1.3,0.6-2.5,1.2-3.6c0.9-1.7,2.3-3.1,4-4.1c1.7-1,3.8-1.5,6.3-1.5
						c2.5,0,4.6,0.5,6.3,1.5c1.7,1,3.1,2.4,4,4.1c0.6,1,1,2.2,1.2,3.6c0.2,1.3,0.3,2.8,0.3,4.4v12.9c0,1.6-0.1,3.1-0.3,4.4
						c-0.2,1.3-0.6,2.5-1.2,3.6c-0.9,1.7-2.3,3.1-4,4.1c-1.7,1-3.8,1.5-6.3,1.5c-2.5,0-4.6-0.5-6.3-1.5c-1.7-1-3.1-2.4-4-4.1
						c-0.6-1-1-2.2-1.2-3.6c-0.2-1.3-0.3-2.8-0.3-4.4V80.6z M226.8,94.8c0,1.5,0.3,2.6,1,3.4c0.7,0.7,1.6,1.1,2.8,1.1
						c1.2,0,2.1-0.4,2.8-1.1c0.7-0.7,1-1.9,1-3.4V79.4c0-1.5-0.3-2.6-1-3.4c-0.7-0.7-1.6-1.1-2.8-1.1c-1.2,0-2.1,0.4-2.8,1.1
						c-0.7,0.7-1,1.9-1,3.4V94.8z"/>
				</g>
				<g>
					<path class="st0" d="M271,90.1h-15.6v5.3c0,1.2,0.3,2.2,1,2.9c0.7,0.7,1.6,1,2.8,1c1.5,0,2.5-0.4,3-1.3
						c0.5-0.9,0.8-1.8,0.9-2.6h7.9c0,3.5-1.1,6.2-3.2,8.3c-1,1.1-2.3,1.9-3.7,2.5c-1.4,0.6-3.1,0.9-4.9,0.9c-2.5,0-4.6-0.5-6.3-1.5
						c-1.7-1-3.1-2.4-4-4.1c-0.6-1-1-2.2-1.2-3.6c-0.2-1.3-0.3-2.8-0.3-4.4V80.6c0-1.6,0.1-3.1,0.3-4.4c0.2-1.3,0.6-2.5,1.2-3.6
						c0.9-1.7,2.3-3.1,4-4.1c1.7-1,3.8-1.5,6.3-1.5c1.8,0,3.4,0.3,4.9,0.9c1.5,0.6,2.7,1.5,3.7,2.5c2.1,2.3,3.1,5.2,3.1,8.7V90.1z
						 M255.4,83.9h7.7v-4.5c0-1.5-0.3-2.6-1-3.4c-0.7-0.7-1.6-1.1-2.8-1.1c-1.2,0-2.1,0.4-2.8,1.1c-0.7,0.7-1,1.9-1,3.4V83.9z"/>
				</g>
				<g>
					<path class="st0" d="M276.8,106.7v-55h7.9v32.9h0.2l9.5-17.1h7.9l-9.3,15.9l11.3,23.3h-8.6l-7.1-16.9l-3.8,5.9v11H276.8z"/>
				</g>
				<g>
					<path class="st0" d="M328.7,90.1h-15.6v5.3c0,1.2,0.3,2.2,1,2.9c0.7,0.7,1.6,1,2.8,1c1.5,0,2.5-0.4,3-1.3
						c0.5-0.9,0.8-1.8,0.9-2.6h7.9c0,3.5-1.1,6.2-3.2,8.3c-1,1.1-2.3,1.9-3.7,2.5c-1.4,0.6-3.1,0.9-4.9,0.9c-2.5,0-4.6-0.5-6.3-1.5
						c-1.7-1-3.1-2.4-4-4.1c-0.6-1-1-2.2-1.2-3.6c-0.2-1.3-0.3-2.8-0.3-4.4V80.6c0-1.6,0.1-3.1,0.3-4.4c0.2-1.3,0.6-2.5,1.2-3.6
						c0.9-1.7,2.3-3.1,4-4.1c1.7-1,3.8-1.5,6.3-1.5c1.8,0,3.4,0.3,4.9,0.9c1.5,0.6,2.7,1.5,3.7,2.5c2.1,2.3,3.1,5.2,3.1,8.7V90.1z
						 M313.1,83.9h7.7v-4.5c0-1.5-0.3-2.6-1-3.4c-0.7-0.7-1.6-1.1-2.8-1.1s-2.1,0.4-2.8,1.1c-0.7,0.7-1,1.9-1,3.4V83.9z"/>
				</g>
				<g>
					<path class="st0" d="M334.5,106.7V67.5h7.9v4.2c1.6-1.4,3.2-2.6,4.7-3.4c1.5-0.8,3.5-1.2,5.7-1.2v8.3c-0.8-0.3-1.6-0.5-2.4-0.5
						c-0.8,0-1.7,0.1-2.7,0.4c-1,0.3-1.8,0.8-2.6,1.4c-0.8,0.7-1.5,1.5-2,2.6c-0.5,1.1-0.8,2.4-0.8,4v23.3H334.5z"/>
				</g>
			</g>
			<rect x="44.9" y="74.6" class="st0" width="47.1" height="32.5"/>
			
				<rect x="43.6" y="61.4" transform="matrix(0.9821 -0.1883 0.1883 0.9821 -11.1627 13.8163)" class="st0" width="47.1" height="8.6"/>
			<circle class="st0" cx="44.9" cy="74.6" r="3"/>
		</g>
	</g>
</g>
</svg>
